<?xml version="1.0" encoding="UTF-8" standalone="no"?>
<svg
   xmlns:dc="http://purl.org/dc/elements/1.1/"
   xmlns:cc="http://creativecommons.org/ns#"
   xmlns:rdf="http://www.w3.org/1999/02/22-rdf-syntax-ns#"
   xmlns:svg="http://www.w3.org/2000/svg"
   xmlns="http://www.w3.org/2000/svg"
   xmlns:sodipodi="http://sodipodi.sourceforge.net/DTD/sodipodi-0.dtd"
   xmlns:inkscape="http://www.inkscape.org/namespaces/inkscape"
   version="1.0"
   width="96.418877pt"
   height="101.19941pt"
   viewBox="0 0 96.418877 101.19941"
   preserveAspectRatio="xMidYMid meet"
   id="svg6695"
   sodipodi:docname="payaso.svg"
   inkscape:version="0.92.5 (0.92.5+69)">
  <metadata
     id="metadata6701">
    <rdf:RDF>
      <cc:Work
         rdf:about="">
        <dc:format>image/svg+xml</dc:format>
        <dc:type
           rdf:resource="http://purl.org/dc/dcmitype/StillImage" />
        <dc:title></dc:title>
      </cc:Work>
    </rdf:RDF>
  </metadata>
  <defs
     id="defs6699">
    <clipPath
       clipPathUnits="userSpaceOnUse"
       id="clipPath7519">
      <rect
         style="fill:none;stroke:#e10000;stroke-width:8.24983692;stroke-opacity:1"
         id="rect7521"
         width="964.18872"
         height="1011.9941"
         x="1533.6445"
         y="-3883.366"
         transform="scale(1,-1)" />
    </clipPath>
  </defs>
  <sodipodi:namedview
     pagecolor="#ffffff"
     bordercolor="#666666"
     borderopacity="1"
     objecttolerance="10"
     gridtolerance="10"
     guidetolerance="10"
     inkscape:pageopacity="0"
     inkscape:pageshadow="2"
     inkscape:window-width="1920"
     inkscape:window-height="970"
     id="namedview6697"
     showgrid="false"
     showborder="false"
     inkscape:zoom="0.46440779"
     inkscape:cx="1103.8929"
     inkscape:cy="-305.79609"
     inkscape:window-x="0"
     inkscape:window-y="27"
     inkscape:window-maximized="1"
     inkscape:current-layer="svg6695"
     fit-margin-top="0"
     fit-margin-left="0"
     fit-margin-right="0"
     fit-margin-bottom="0" />
  <g
     transform="matrix(0.1,0,0,-0.1,-153.36445,388.3366)"
     id="g6693"
     style="fill:#000000;stroke:none"
     clip-path="url(#clipPath7519)">
    <path
       d="m 1743,5365 c -34,-24 -47,-76 -29,-118 17,-43 41,-57 94,-57 89,0 125,122 53,177 -22,17 -92,16 -118,-2 z"
       id="path6603"
       inkscape:connector-curvature="0" />
    <path
       d="m 500,5268 c 0,-66 0,-67 -55,-131 C 339,5011 196,4898 84,4850 l -47,-21 7,-93 c 7,-104 -7,-265 -30,-328 -8,-22 -14,-42 -14,-44 0,-2 62,-4 139,-4 h 138 l 70,73 c 72,76 117,146 148,230 l 18,49 24,-62 c 30,-81 99,-184 162,-243 l 50,-47 h 141 c 77,0 140,2 140,5 0,4 -6,18 -14,33 -24,49 -38,164 -34,299 l 3,131 -79,41 c -96,50 -169,104 -248,185 -69,69 -138,153 -138,167 0,5 41,9 90,9 50,0 90,4 90,9 0,5 -10,16 -22,24 l -23,16 25,20 c 14,11 23,22 20,24 -3,3 -49,7 -103,9 l -97,3 z m 59,-382 c 10,-39 24,-105 30,-146 11,-66 31,-155 47,-207 3,-10 -10,7 -30,37 -34,54 -69,149 -81,223 -9,53 -22,46 -30,-18 -8,-64 -40,-152 -78,-212 -33,-51 -42,-55 -23,-10 7,18 21,76 30,128 10,52 28,139 41,194 13,55 29,136 36,180 l 13,80 13,-89 c 7,-49 21,-121 32,-160 z m 132,0 66,-71 7,-125 c 7,-120 26,-256 41,-292 6,-14 2,-18 -14,-18 -17,0 -28,13 -48,58 -40,89 -72,199 -84,292 -6,47 -18,98 -26,113 -13,25 -83,224 -83,236 0,3 17,-23 38,-58 20,-35 67,-96 103,-135 z m 95,19 c 32,-25 77,-54 99,-66 l 40,-21 1,-167 c 1,-114 6,-182 16,-218 l 15,-53 h -38 c -38,0 -39,1 -53,53 -21,71 -36,203 -36,307 v 86 l -50,38 c -50,38 -126,121 -170,186 -17,25 -3,15 46,-33 39,-37 97,-88 130,-112 z m -400,106 c -25,-32 -76,-87 -114,-122 l -69,-64 -11,-155 c -6,-85 -18,-185 -27,-222 l -17,-68 h -40 c -33,0 -38,3 -34,18 18,56 26,142 26,272 v 148 l 58,32 c 63,36 166,117 227,179 21,23 41,41 43,41 2,0 -17,-26 -42,-59 z m 63,-18 c -12,-37 -31,-88 -42,-113 -11,-25 -27,-90 -37,-145 -31,-178 -95,-346 -134,-354 -16,-2 -18,1 -12,20 17,62 36,224 36,312 v 98 l 68,69 c 38,38 84,96 103,129 19,32 36,57 38,56 1,-2 -7,-34 -20,-72 z"
       id="path6605"
       inkscape:connector-curvature="0" />
    <path
       d="m 3195,5321 c -87,-39 -130,-127 -123,-248 5,-85 27,-140 72,-182 l 26,-25 -21,-22 -20,-22 26,-6 c 21,-5 24,-9 15,-26 -14,-27 -12,-86 4,-119 8,-15 40,-49 71,-75 65,-56 95,-109 95,-166 0,-22 5,-40 10,-40 6,0 10,23 10,52 0,66 -29,116 -109,186 -65,57 -81,94 -61,146 8,21 15,27 30,23 19,-5 20,-2 14,29 -4,21 -2,34 4,34 6,0 13,17 15,38 3,31 4,29 5,-15 3,-77 37,-156 88,-203 24,-22 51,-40 60,-40 15,0 15,-2 0,-25 -21,-33 -21,-35 13,-35 23,0 30,-5 34,-26 7,-39 -10,-90 -44,-128 -29,-33 -37,-56 -20,-56 16,0 69,68 81,105 7,21 10,52 7,71 -5,26 -2,34 10,34 9,0 13,6 9,15 -3,8 -8,21 -12,29 -3,8 6,18 23,25 30,12 75,62 94,104 10,22 14,23 41,13 29,-11 30,-17 13,-59 -6,-15 -4,-17 19,-11 25,6 26,4 26,-31 0,-39 -3,-43 -133,-162 -26,-23 -49,-53 -53,-67 -8,-34 3,-76 20,-76 11,0 13,10 9,38 -5,35 -1,43 34,78 21,21 61,57 88,80 45,37 50,44 55,94 4,47 8,55 29,60 21,5 22,7 7,19 -23,19 -21,22 28,73 90,94 102,268 25,366 -30,39 -97,72 -144,72 -54,0 -124,-37 -152,-79 -13,-18 -21,-37 -18,-41 2,-4 -6,-5 -18,-3 -18,4 -23,12 -25,45 -3,44 -30,104 -59,130 -28,25 -88,48 -125,48 -18,0 -51,-9 -73,-19 z m 174,-45 c 9,-10 9,-16 1,-21 -16,-10 -40,2 -40,20 0,19 24,20 39,1 z m 379,-88 c 17,-17 15,-28 -7,-28 -22,0 -35,15 -26,30 8,13 18,13 33,-2 z m -23,-68 c 3,-5 1,-10 -4,-10 -6,0 -11,5 -11,10 0,6 2,10 4,10 3,0 8,-4 11,-10 z m -186,-59 c 18,-12 6,-42 -14,-35 -8,3 -15,15 -15,25 0,21 8,23 29,10 z m -19,-65 c 0,-3 -4,-8 -10,-11 -5,-3 -10,-1 -10,4 0,6 5,11 10,11 6,0 10,-2 10,-4 z"
       id="path6607"
       inkscape:connector-curvature="0" />
    <path
       d="m 4787,5330 c -60,-15 -117,-49 -173,-101 -172,-163 -146,-464 50,-595 68,-45 132,-64 213,-64 163,0 289,78 357,220 28,59 31,74 31,160 -1,76 -6,107 -25,155 -32,83 -123,173 -205,205 -67,25 -187,35 -248,20 z m 100,-63 c -32,-53 -32,-53 -35,-24 -6,54 5,77 37,77 h 29 z m -89,-21 21,-45 -49,37 c -33,24 -45,39 -37,44 26,16 44,6 65,-36 z m 255,27 32,-17 -55,-7 c -30,-3 -75,-16 -99,-27 l -44,-22 23,25 c 18,19 94,65 108,65 2,0 17,-8 35,-17 z m -293,-78 c 35,-13 35,-13 -35,-15 -38,0 -87,-7 -107,-14 l -36,-13 21,28 c 18,26 27,29 71,28 28,0 67,-7 86,-14 z m 362,-15 c 49,-14 74,-37 94,-85 l 16,-40 -23,21 c -53,48 -182,93 -270,95 -37,1 -40,2 -19,9 37,12 159,12 202,0 z m -388,-71 c -103,-71 -157,-133 -185,-213 -13,-35 -14,-36 -20,-15 -13,46 -9,119 8,145 33,51 165,121 232,123 20,1 13,-7 -35,-40 z m 294,-14 c 84,-39 171,-116 197,-175 17,-38 17,-42 0,-86 l -17,-46 -17,50 c -30,87 -124,193 -246,276 -51,36 -19,28 83,-19 z m -237,-8 c -62,-101 -121,-325 -106,-404 l 6,-35 -30,22 c -39,27 -51,49 -51,93 0,81 60,205 148,307 50,58 62,64 33,17 z m 181,-80 c 71,-96 139,-230 145,-289 5,-42 4,-44 -36,-66 l -40,-23 -6,28 c -22,108 -79,275 -152,443 -14,32 30,-15 89,-93 z m -122,64 c 0,-42 39,-344 54,-418 l 13,-63 h -49 c -42,0 -50,3 -58,24 -26,68 -21,245 12,424 12,65 28,84 28,33 z"
       id="path6609"
       inkscape:connector-curvature="0" />
    <path
       d="m 1795,5150 c -20,-38 -14,-76 23,-141 l 25,-46 -22,-47 c -13,-26 -42,-70 -66,-99 -74,-91 -93,-147 -77,-229 5,-26 6,-49 3,-50 -4,-2 -17,-17 -29,-34 -12,-17 -37,-39 -57,-48 -37,-18 -46,-40 -19,-50 32,-12 110,-6 144,12 34,19 35,19 80,-4 25,-13 63,-24 85,-26 22,-1 50,-10 63,-19 49,-38 142,-45 230,-18 33,11 45,42 20,53 -10,3 -8,8 4,16 48,30 80,67 109,125 27,55 35,64 64,69 33,7 85,40 85,55 0,5 -23,11 -52,13 -45,5 -56,11 -94,52 -24,25 -48,46 -54,46 -16,0 -12,-93 6,-118 18,-26 13,-37 -28,-58 -42,-22 -138,-15 -176,13 -38,28 -72,91 -72,136 0,51 19,93 70,150 35,39 44,57 47,95 8,91 -51,139 -193,161 -39,6 -78,13 -87,16 -11,5 -21,-3 -32,-25 z"
       id="path6611"
       inkscape:connector-curvature="0" />
    <path
       d="m 4925,3891 c -54,-15 -106,-41 -100,-51 3,-5 -8,-5 -27,1 -51,14 -81,11 -130,-14 -42,-21 -45,-21 -59,-5 -58,71 -179,-31 -179,-152 0,-38 7,-57 40,-103 22,-30 40,-60 40,-66 0,-29 79,-47 95,-21 11,18 63,-21 69,-51 16,-81 -4,-129 -54,-129 -36,0 -49,-19 -25,-37 46,-33 129,-2 159,61 17,36 17,36 41,19 27,-20 35,-42 35,-95 0,-26 -6,-40 -19,-47 -14,-8 -22,-34 -35,-118 -9,-59 -16,-115 -16,-124 0,-34 208,-51 337,-27 l 65,12 -6,35 c -3,20 -11,76 -18,125 -11,76 -16,90 -35,99 -39,17 -27,76 19,96 76,34 131,106 170,221 l 18,55 -5,-66 c -2,-36 -5,-70 -7,-75 -2,-5 2,-11 7,-13 15,-6 36,96 32,151 -2,26 -13,59 -23,74 -10,15 -32,50 -47,78 -39,70 -77,107 -142,140 -60,30 -147,42 -200,27 z m 5,-142 c 15,-28 5,-23 -15,7 -9,15 -12,23 -6,20 6,-4 16,-16 21,-27 z m 27,-126 c -2,-16 -4,-5 -4,22 0,28 2,40 4,28 2,-13 2,-35 0,-50 z m 120,30 c -3,-10 -5,-4 -5,12 0,17 2,24 5,18 2,-7 2,-21 0,-30 z m -530,-25 c -2,-13 -4,-5 -4,17 -1,22 1,32 4,23 2,-10 2,-28 0,-40 z m 250,-180 c -3,-8 -6,-5 -6,6 -1,11 2,17 5,13 3,-3 4,-12 1,-19 z m 190,-215 c -3,-10 -5,-4 -5,12 0,17 2,24 5,18 2,-7 2,-21 0,-30 z"
       id="path6613"
       inkscape:connector-curvature="0" />
    <path
       d="m 1848,3854 c -28,-15 -58,-61 -58,-89 0,-10 -9,-15 -28,-15 -37,0 -62,-28 -62,-68 0,-21 -5,-32 -14,-32 -24,0 -73,-48 -79,-77 -3,-16 0,-44 7,-64 11,-32 10,-39 -6,-59 -28,-35 -23,-86 11,-121 16,-16 40,-29 53,-29 15,0 27,-8 33,-22 6,-13 27,-32 48,-43 65,-35 70,-49 65,-206 l -3,-139 h 203 203 l -2,145 c -1,129 1,147 18,169 11,14 32,28 48,32 15,4 35,20 44,35 9,16 24,29 33,29 25,0 75,46 82,76 5,17 0,40 -12,65 -16,32 -18,45 -9,79 16,57 1,90 -50,116 -23,12 -40,24 -36,27 9,9 -5,54 -23,71 -8,9 -26,16 -39,16 -18,0 -26,8 -35,34 -24,75 -100,104 -181,69 -42,-18 -45,-18 -79,-1 -42,22 -95,23 -132,2 z m 112,-209 c 32,-19 90,-18 114,0 29,22 72,18 96,-7 26,-28 42,-88 38,-140 -2,-35 1,-42 25,-54 123,-65 -25,-307 -204,-331 -31,-5 -53,1 -104,26 -131,65 -209,218 -145,286 13,14 29,25 37,25 9,0 13,17 13,59 0,125 53,180 130,136 z m -34,-552 c 50,-21 131,-25 164,-8 68,34 70,33 70,-44 0,-39 -2,-71 -5,-71 -3,0 -28,11 -56,25 -35,18 -54,23 -66,16 -11,-5 -23,-5 -33,1 -12,8 -29,4 -68,-16 -28,-14 -54,-26 -57,-26 -3,0 -5,32 -5,70 0,39 4,70 9,70 5,0 26,-7 47,-17 z"
       id="path6615"
       inkscape:connector-curvature="0" />
    <path
       d="m 1872,3588 c -24,-24 -12,-33 48,-33 57,0 59,0 46,20 -16,23 -75,32 -94,13 z"
       id="path6617"
       inkscape:connector-curvature="0" />
    <path
       d="m 2077,3582 c -9,-10 -17,-21 -17,-23 0,-2 27,-4 60,-4 57,0 59,0 46,20 -18,27 -67,31 -89,7 z"
       id="path6619"
       inkscape:connector-curvature="0" />
    <path
       d="m 1882,3508 c -7,-7 -12,-25 -12,-40 0,-27 2,-28 50,-28 41,0 50,3 50,18 0,47 -58,80 -88,50 z"
       id="path6621"
       inkscape:connector-curvature="0" />
    <path
       d="m 2080,3501 c -5,-11 -10,-29 -10,-40 0,-18 6,-21 50,-21 41,0 50,3 50,18 0,51 -68,84 -90,43 z"
       id="path6623"
       inkscape:connector-curvature="0" />
    <path
       d="m 1826,3411 c -21,-24 -13,-41 18,-41 28,0 50,24 42,45 -8,21 -40,19 -60,-4 z"
       id="path6625"
       inkscape:connector-curvature="0" />
    <path
       d="m 2153,3423 c -17,-6 -16,-18 3,-37 20,-21 53,-20 61,0 10,27 -31,51 -64,37 z"
       id="path6627"
       inkscape:connector-curvature="0" />
    <path
       d="m 1958,3405 c -36,-20 -39,-67 -6,-89 50,-35 158,-5 158,43 0,47 -98,77 -152,46 z"
       id="path6629"
       inkscape:connector-curvature="0" />
    <path
       d="m 1860,3302 c 0,-5 15,-23 33,-40 17,-17 42,-45 55,-62 20,-25 30,-30 66,-30 32,0 48,6 64,23 11,12 40,41 63,65 45,45 48,65 4,36 -39,-25 -196,-27 -247,-2 -21,10 -38,15 -38,10 z"
       id="path6631"
       inkscape:connector-curvature="0" />
    <path
       d="m 3297,3813 c -23,-6 -12,-23 16,-24 12,-1 -2,-5 -31,-10 -29,-5 -70,-18 -91,-28 -55,-28 -126,-112 -166,-196 -38,-79 -43,-100 -20,-91 12,4 14,0 8,-22 -14,-50 -8,-214 9,-252 l 16,-35 10,25 c 10,23 11,23 11,4 3,-91 110,-207 239,-260 l 54,-22 59,35 58,35 53,-33 c 29,-18 60,-32 69,-31 31,1 130,55 174,94 58,51 85,90 106,152 11,31 18,42 18,29 1,-36 17,-27 30,18 20,67 24,169 8,227 -9,32 -10,49 -4,43 23,-23 26,-9 8,39 -60,158 -160,254 -279,268 l -45,5 29,12 29,12 -42,7 c -52,9 -102,-6 -133,-39 l -23,-25 -15,21 c -26,38 -97,57 -155,42 z m 148,-223 c 17,-19 18,-19 43,0 13,11 32,20 42,20 43,0 110,-106 150,-238 43,-142 15,-229 -108,-329 -46,-37 -59,-43 -101,-43 -37,0 -57,7 -87,28 -49,36 -108,101 -130,144 -26,49 -21,141 11,229 63,175 129,245 180,189 z"
       id="path6633"
       inkscape:connector-curvature="0" />
    <path
       d="m 3382,3508 c -16,-16 -15,-58 1,-58 19,0 47,33 47,53 0,20 -30,23 -48,5 z"
       id="path6635"
       inkscape:connector-curvature="0" />
    <path
       d="m 3510,3497 c 0,-28 17,-47 42,-47 21,0 25,39 6,58 -21,21 -48,14 -48,-11 z"
       id="path6637"
       inkscape:connector-curvature="0" />
    <path
       d="m 3429,3404 c -7,-8 -17,-45 -23,-82 -10,-55 -16,-69 -36,-79 -70,-34 -78,-94 -22,-153 20,-22 45,-49 55,-60 26,-30 106,-28 135,3 12,13 22,28 22,34 0,7 9,15 21,18 11,4 27,22 35,40 19,47 2,93 -41,111 -26,11 -33,20 -39,51 -10,64 -11,63 54,63 33,0 60,4 60,9 0,11 -48,51 -61,51 -4,0 -21,-12 -38,-26 -28,-23 -31,-24 -31,-7 0,10 -5,24 -12,31 -17,17 -63,15 -79,-4 z m 59,-16 c 5,-7 13,-34 17,-60 l 7,-48 h -45 -44 l 8,46 c 12,66 34,89 57,62 z m -55,-213 c 32,-8 33,-14 6,-49 -26,-33 -62,-34 -88,0 -21,26 -19,46 8,77 14,17 16,17 31,-2 8,-11 27,-23 43,-26 z m 149,28 c 10,-9 18,-27 18,-40 0,-28 -33,-63 -60,-63 -23,0 -60,33 -60,54 0,8 11,17 25,20 14,4 31,15 37,26 15,24 17,24 40,3 z m -92,-107 c 6,-8 21,-16 33,-18 l 22,-3 -22,-22 c -28,-28 -73,-30 -104,-4 -13,11 -22,21 -19,23 14,9 66,36 71,37 4,1 12,-5 19,-13 z"
       id="path6639"
       inkscape:connector-curvature="0" />
    <path
       d="m 3325,3398 c -21,-12 -35,-28 -35,-40 0,-5 25,-8 55,-8 61,0 73,16 33,44 -26,19 -27,19 -53,4 z"
       id="path6641"
       inkscape:connector-curvature="0" />
    <path
       d="m 3260,3315 c -15,-19 -5,-35 24,-35 25,0 46,17 46,37 0,18 -55,17 -70,-2 z"
       id="path6643"
       inkscape:connector-curvature="0" />
    <path
       d="m 3610,3312 c 0,-21 18,-32 52,-32 14,0 19,6 16,23 -2,17 -11,23 -35,25 -27,3 -33,0 -33,-16 z"
       id="path6645"
       inkscape:connector-curvature="0" />
    <path
       d="m 773,3726 c -4,-8 -87,-41 -183,-74 C 205,3520 146,3489 109,3404 89,3357 82,3264 95,3210 c 4,-19 21,-54 37,-78 l 29,-42 -28,-11 c -22,-9 -34,-8 -56,5 -35,20 -47,20 -47,3 0,-41 102,-65 144,-34 26,19 117,-27 155,-80 57,-79 183,-97 258,-37 54,44 75,89 70,154 -2,30 -7,62 -11,72 -6,12 25,44 136,142 79,69 151,126 160,126 9,0 19,4 23,10 8,12 -157,299 -172,300 -7,0 -16,-6 -20,-14 z M 519,3250 c 49,-14 106,-59 91,-74 -8,-8 -15,-7 -24,6 -13,17 -74,48 -96,48 -15,0 -13,-127 3,-133 8,-3 6,-9 -8,-20 -11,-9 -21,-11 -23,-6 -2,5 -33,9 -69,9 -65,0 -65,0 -59,-25 5,-18 2,-25 -8,-25 -27,0 -30,62 -5,120 36,83 115,124 198,100 z m 89,-133 c 3,-13 -4,-17 -29,-17 -32,0 -32,0 -14,20 21,23 38,22 43,-3 z m 2,-59 c -1,-7 -6,-23 -13,-36 l -13,-22 -34,35 -34,35 h 47 c 31,0 47,-4 47,-12 z m -150,-64 c 0,-42 -1,-45 -22,-39 -41,13 -43,24 -13,55 16,16 30,30 32,30 2,0 3,-21 3,-46 z m 78,-31 c -40,-22 -48,-16 -48,34 v 47 l 35,-34 35,-34 z m -148,53 c 0,-3 -4,-8 -10,-11 -5,-3 -10,-1 -10,4 0,6 5,11 10,11 6,0 10,-2 10,-4 z"
       id="path6647"
       inkscape:connector-curvature="0" />
    <path
       d="m 413,3215 c -18,-8 -33,-17 -33,-22 0,-4 19,-28 43,-53 l 42,-45 -45,43 c -25,23 -49,42 -53,42 -9,0 -37,-62 -37,-80 0,-7 24,-10 68,-8 l 67,3 3,68 c 3,74 0,76 -55,52 z"
       id="path6649"
       inkscape:connector-curvature="0" />
    <path
       d="m 824,3120 c -36,-14 -64,-59 -64,-102 0,-32 7,-47 34,-74 40,-40 83,-45 132,-15 113,69 21,241 -102,191 z"
       id="path6651"
       inkscape:connector-curvature="0" />
    <path
       d="m 1708,3093 c -50,-52 -68,-93 -68,-153 v -50 h 65 65 v 120 c 0,137 -4,142 -62,83 z"
       id="path6653"
       inkscape:connector-curvature="0" />
    <path
       d="m 2270,3010 v -120 h 66 67 l -6,54 c -3,30 -13,68 -21,85 -18,34 -81,101 -96,101 -6,0 -10,-49 -10,-120 z"
       id="path6655"
       inkscape:connector-curvature="0" />
    <path
       d="m 550,2398 c 0,-18 5,-67 12,-109 l 11,-77 -47,-64 -47,-65 -105,-12 c -102,-12 -174,-31 -201,-52 -15,-13 -18,-75 -3,-84 6,-4 10,-66 10,-153 0,-99 -3,-142 -10,-132 -7,11 -10,8 -10,-16 0,-17 8,-38 18,-47 87,-79 527,-89 677,-17 41,20 45,25 45,58 0,28 -3,33 -10,22 -7,-10 -10,33 -10,132 0,87 4,149 10,153 15,9 12,71 -3,84 -25,20 -97,40 -179,51 -45,5 -82,11 -83,12 -1,2 -5,28 -8,58 l -7,55 60,74 c 60,73 77,116 43,109 -10,-2 -39,-32 -65,-67 l -48,-64 -1,44 c -1,83 -13,134 -31,137 -14,3 -18,-4 -18,-30 z m 40,-295 c 0,-20 -5,-23 -36,-23 h -35 l 27,36 c 29,37 44,33 44,-13 z m -158,-70 c 4,-38 49,-40 58,-3 5,22 12,25 57,28 l 52,3 -2,-43 c -2,-38 1,-43 21,-46 28,-4 39,21 22,54 -8,13 -11,26 -9,28 2,2 42,-2 89,-9 131,-20 171,-41 128,-68 -49,-31 -131,-42 -318,-42 -187,0 -269,11 -318,42 -50,31 5,52 210,82 4,1 8,-11 10,-26 z M 252,1803 c -5,-181 -8,-199 -10,-50 -1,81 1,147 6,147 4,0 6,-44 4,-97 z m 566,-50 c -2,-149 -5,-131 -10,50 -2,53 0,97 5,97 4,0 6,-66 5,-147 z m -440,-25 c -2,-155 -6,-137 -10,50 -2,56 0,102 5,102 4,0 6,-69 5,-152 z m 320,0 c -2,-155 -6,-137 -10,50 -2,56 0,102 5,102 4,0 6,-69 5,-152 z m -145,134 c -9,-5 -13,-52 -16,-152 l -3,-145 -2,147 c -2,130 -4,147 -19,151 -10,3 -2,5 17,6 20,0 30,-3 23,-7 z"
       id="path6657"
       inkscape:connector-curvature="0" />
    <path
       d="m 3399,2381 c -32,-33 -36,-58 -14,-100 16,-32 33,-41 78,-41 39,1 63,18 77,54 13,36 3,72 -27,96 -37,29 -79,26 -114,-9 z"
       id="path6659"
       inkscape:connector-curvature="0" />
    <path
       d="m 4754,2374 c -12,-11 -55,-59 -97,-109 -42,-49 -107,-123 -146,-164 -39,-40 -68,-77 -65,-82 9,-14 42,-10 82,10 20,10 54,26 76,35 l 38,16 -16,-23 c -8,-12 -36,-52 -60,-89 -25,-36 -50,-69 -56,-73 -5,-3 -10,-13 -10,-21 0,-24 41,-16 94,20 28,18 64,41 80,50 24,15 27,22 22,48 -5,27 1,37 68,105 l 75,76 88,-22 c 90,-23 143,-56 143,-91 0,-9 16,-40 35,-70 39,-62 43,-88 17,-120 -22,-28 -48,-19 -32,10 16,31 12,78 -10,100 -11,11 -20,29 -20,40 0,24 -40,43 -67,33 -25,-9 -79,-61 -110,-105 -26,-38 -26,-38 -9,-83 10,-24 14,-49 11,-55 -4,-6 5,-23 19,-37 14,-14 26,-30 26,-34 0,-16 41,-9 80,13 31,18 42,20 51,11 10,-10 10,-18 1,-38 -7,-14 -12,-39 -12,-55 0,-26 -7,-33 -57,-59 -32,-15 -83,-36 -113,-44 -75,-22 -102,-52 -98,-108 4,-59 29,-62 100,-15 l 52,36 98,-7 c 127,-8 131,-5 122,93 -9,97 -2,120 44,143 112,58 146,164 103,326 -26,101 -44,134 -112,202 -90,90 -194,135 -349,149 -55,5 -68,3 -86,-12 z m -65,-224 c -17,-27 -33,-50 -35,-50 -2,0 -4,9 -4,21 0,15 54,79 67,79 2,0 -11,-22 -28,-50 z m 354,-597 c -7,-2 -19,-2 -25,0 -7,3 -2,5 12,5 14,0 19,-2 13,-5 z"
       id="path6661"
       inkscape:connector-curvature="0" />
    <path
       d="m 2218,2257 c -65,-22 -118,-46 -118,-51 0,-6 -109,-120 -242,-253 l -242,-242 27,-29 27,-28 -75,-74 c -50,-49 -75,-82 -75,-97 0,-41 32,-25 112,54 l 77,77 24,-22 c 13,-12 28,-22 33,-22 5,0 117,108 248,239 132,132 244,239 249,238 7,-2 62,137 91,231 10,30 3,29 -136,-21 z m -13,-157 29,-30 h -109 -109 l 29,30 c 25,26 36,30 80,30 44,0 55,-4 80,-30 z m -75,-135 c -22,-24 -29,-25 -133,-25 h -110 l 23,25 c 22,24 29,25 133,25 h 110 z m -135,-135 c -29,-30 -30,-30 -139,-30 h -110 l 29,30 c 29,30 30,30 139,30 h 110 z m -130,-130 c -27,-28 -34,-30 -100,-30 -58,0 -75,4 -89,19 -31,34 -11,41 106,41 h 112 z"
       id="path6663"
       inkscape:connector-curvature="0" />
    <path
       d="m 3150,2173 c -82,-31 -78,-148 5,-169 80,-20 143,87 83,144 -25,23 -65,34 -88,25 z"
       id="path6665"
       inkscape:connector-curvature="0" />
    <path
       d="m 3720,2173 c -50,-19 -74,-76 -54,-128 8,-19 55,-45 84,-45 33,0 80,53 80,89 0,53 -64,102 -110,84 z"
       id="path6667"
       inkscape:connector-curvature="0" />
    <path
       d="m 3064,1820 c -12,-5 -29,-19 -38,-32 -51,-72 33,-165 112,-124 33,17 42,34 42,76 0,42 -9,59 -41,75 -31,17 -44,18 -75,5 z"
       id="path6669"
       inkscape:connector-curvature="0" />
    <path
       d="m 3779,1815 c -14,-8 -32,-28 -39,-45 -35,-85 84,-158 146,-89 25,28 25,93 -1,119 -27,26 -74,33 -106,15 z"
       id="path6671"
       inkscape:connector-curvature="0" />
    <path
       d="m 2846,1681 c -3,-4 4,-36 15,-69 42,-124 125,-165 334,-166 72,-1 136,-5 143,-9 18,-12 15,21 -7,70 -31,68 -56,78 -201,79 -69,1 -130,2 -135,3 -6,1 -19,17 -30,38 -25,46 -103,81 -119,54 z"
       id="path6673"
       inkscape:connector-curvature="0" />
    <path
       d="m 4014,1679 c -20,-6 -37,-22 -52,-48 -12,-21 -28,-41 -35,-43 -6,-2 -59,-3 -117,-2 -122,3 -160,-6 -194,-46 -41,-49 -60,-132 -23,-102 9,8 58,11 138,9 159,-3 223,15 280,76 35,37 69,113 69,154 0,15 -20,15 -66,2 z"
       id="path6675"
       inkscape:connector-curvature="0" />
    <path
       d="m 407,1120 c -15,-17 -32,-50 -38,-73 -17,-62 -5,-209 23,-294 l 24,-71 -46,-7 C 298,665 218,638 175,610 103,564 121,500 217,464 l 43,-17 V 273 100 L 292,80 C 341,50 386,39 485,33 588,27 693,47 741,81 l 29,20 v 174 173 l 35,12 c 95,31 123,98 60,146 -35,26 -148,64 -192,64 -22,0 -21,4 23,98 75,158 96,213 101,271 5,45 3,56 -12,67 -34,25 -73,17 -119,-26 -46,-42 -78,-105 -106,-205 l -17,-59 -5,126 c -7,153 -24,201 -74,206 -25,2 -37,-3 -57,-28 z m 73,-227 c 0,-89 -4,-164 -9,-167 -5,-3 -19,22 -32,57 -32,85 -34,257 -5,302 l 20,30 12,-30 c 9,-20 13,-84 14,-192 z m 267,141 C 740,994 611,720 598,720 c -15,0 -8,88 13,156 25,84 60,145 96,173 39,29 46,26 40,-15 z M 366,601 c -26,-27 -27,-33 -17,-62 6,-18 9,-34 6,-37 -2,-2 -21,4 -42,15 -51,27 -55,56 -11,79 27,14 67,29 87,33 3,1 -8,-12 -23,-28 z m 386,-24 c 14,-22 8,-36 -22,-52 l -30,-15 7,30 c 4,24 0,37 -18,56 l -24,26 40,-16 c 21,-9 43,-22 47,-29 z M 495,550 c 8,-14 58,-13 73,2 9,9 13,7 18,-6 10,-26 -20,-50 -61,-50 -40,0 -69,23 -59,47 7,19 20,22 29,7 z m -53,-30 c 4,-25 1,-30 -17,-30 -14,0 -26,10 -33,25 -16,35 -16,35 17,35 24,0 29,-5 33,-30 z m 238,22 c 0,-4 -7,-18 -16,-30 -18,-26 -60,-31 -50,-6 3,9 6,22 6,30 0,9 11,14 30,14 17,0 30,-3 30,-8 z M 340,273 c 0,-119 -3,-154 -12,-151 -10,4 -14,47 -16,161 -2,137 -1,156 13,151 13,-5 15,-31 15,-161 z"
       id="path6677"
       inkscape:connector-curvature="0" />
    <path
       d="m 4784,900 c -104,-9 -213,-26 -223,-35 -2,-3 5,-43 17,-89 12,-46 22,-87 22,-90 0,-3 -11,-6 -25,-6 h -25 V 389 98 l 48,4 c 44,3 48,1 44,-17 -2,-11 6,-33 18,-48 43,-54 131,-27 134,40 l 1,28 h 148 147 V 78 c 0,-63 84,-92 128,-45 12,13 22,33 22,45 0,20 5,22 65,22 51,0 65,-3 65,-15 0,-8 9,-15 20,-15 13,0 20,-7 20,-20 0,-11 7,-20 15,-20 8,0 15,-7 15,-15 0,-8 9,-15 20,-15 16,0 20,7 20,35 0,24 -5,35 -15,35 -8,0 -15,9 -15,20 0,13 -7,20 -20,20 -13,0 -20,7 -20,20 0,16 -7,20 -35,20 h -35 v 265 265 h -25 c -30,0 -30,1 -4,102 11,44 18,82 16,85 -3,2 -47,10 -98,18 -127,18 -323,25 -445,15 z m 133,-47 c 4,-9 1,-19 -5,-21 -8,-2 -7,-11 4,-28 15,-22 15,-24 0,-24 -10,0 -16,9 -17,23 -2,45 -4,50 -18,55 -10,3 -12,-5 -9,-37 3,-32 0,-41 -12,-41 -12,0 -15,8 -12,35 3,25 0,35 -9,35 -11,0 -11,2 1,10 25,16 70,12 77,-7 z m 75,5 c -7,-7 -12,-25 -12,-41 0,-26 2,-29 26,-23 17,5 23,3 19,-4 -8,-14 -48,-13 -63,2 -26,26 -7,78 27,78 12,0 12,-3 3,-12 z m 38,-4 c 0,-8 -5,-12 -10,-9 -6,4 -8,11 -5,16 9,14 15,11 15,-7 z m -226,-9 c -3,-8 -1,-28 4,-45 10,-28 9,-30 -12,-30 -19,0 -21,4 -18,35 3,21 0,35 -7,35 -6,0 -11,5 -11,10 0,6 11,10 25,10 17,0 23,-4 19,-15 z m 289,8 c -19,-7 -17,-73 2,-73 17,0 30,42 21,66 -4,10 -1,14 6,11 14,-4 12,-41 -4,-70 -6,-11 -18,-17 -31,-15 -18,2 -23,12 -28,46 -5,40 -4,42 20,41 14,0 20,-3 14,-6 z m -380,-10 c -7,-2 -13,-20 -13,-39 0,-27 4,-34 19,-34 11,0 22,5 24,10 3,6 4,5 3,-2 -3,-18 -44,-22 -62,-8 -29,25 -8,81 31,79 6,0 4,-3 -2,-6 z m 24,-15 c -3,-8 -6,-5 -6,6 -1,11 2,17 5,13 3,-3 4,-12 1,-19 z m 483,2 c 0,-5 -9,-6 -20,-3 -26,7 -25,-4 3,-27 20,-17 20,-20 7,-34 -9,-9 -24,-13 -38,-10 -32,9 -27,26 6,18 l 27,-5 -22,19 c -26,22 -28,33 -12,49 11,11 49,6 49,-7 z m -99,-110 c 116,-12 139,-17 139,-31 0,-12 -627,-12 -635,0 -18,30 304,50 496,31 z M 4700,610 v -50 h -35 -35 v 50 50 h 35 35 z m 140,0 c 0,-49 -1,-50 -30,-50 -29,0 -30,1 -30,50 0,49 1,50 30,50 29,0 30,-1 30,-50 z m 140,0 c 0,-49 -1,-50 -30,-50 -29,0 -30,1 -30,50 0,49 1,50 30,50 29,0 30,-1 30,-50 z m 140,0 c 0,-49 -1,-50 -30,-50 -29,0 -30,1 -30,50 0,49 1,50 30,50 29,0 30,-1 30,-50 z m 140,0 c 0,-49 -1,-50 -30,-50 -29,0 -30,1 -30,50 0,49 1,50 30,50 29,0 30,-1 30,-50 z m 60,-140 c 0,-53 -2,-60 -20,-60 -10,0 -25,10 -31,22 l -12,23 -10,-23 c -6,-12 -18,-22 -29,-22 -19,0 -24,-15 -8,-25 6,-3 10,-14 10,-24 0,-15 8,-18 39,-18 31,0 38,3 34,17 -2,9 3,22 11,29 14,12 16,5 16,-68 v -81 h -370 -370 v 145 145 h 370 370 z M 4744,104 c 20,-19 5,-54 -24,-54 -29,0 -44,35 -24,54 19,20 29,20 48,0 z m 450,-6 c 8,-14 7,-21 -6,-34 -30,-30 -75,9 -48,42 16,18 39,15 54,-8 z"
       id="path6679"
       inkscape:connector-curvature="0" />
    <path
       d="M 4630,385 V 280 h 125 125 v 105 105 h -125 -125 z m 220,0 v -85 h -100 -100 v 85 85 h 100 100 z"
       id="path6681"
       inkscape:connector-curvature="0" />
    <path
       d="M 4920,385 V 280 h 125 125 v 105 105 h -125 -125 z m 230,0 v -85 h -105 -105 v 85 85 h 105 105 z"
       id="path6683"
       inkscape:connector-curvature="0" />
    <path
       d="m 2229,848 c -27,-18 -54,-62 -131,-213 -53,-104 -100,-205 -104,-222 -8,-43 1,-76 30,-110 l 24,-28 -55,-108 c -30,-60 -52,-115 -49,-123 13,-34 38,-8 92,96 l 57,110 h 44 c 68,0 95,22 151,124 94,171 162,318 162,352 0,114 -127,184 -221,122 z"
       id="path6685"
       inkscape:connector-curvature="0" />
    <path
       d="m 3246,855 c -42,-43 -19,-102 47,-119 35,-9 37,-12 37,-51 v -42 l -54,-12 c -57,-13 -130,-59 -166,-103 -95,-121 -84,-305 25,-411 63,-62 117,-82 215,-82 73,0 92,4 136,27 64,34 128,105 148,165 9,26 16,74 16,108 0,34 -7,82 -16,108 -30,89 -131,174 -227,192 -20,4 -37,11 -37,16 0,24 177,-3 241,-37 78,-40 142,-125 174,-231 13,-43 13,-43 -13,-50 -37,-8 -82,-41 -82,-59 0,-20 24,-18 62,6 18,11 38,20 43,20 6,-1 -7,-10 -28,-21 -72,-38 -97,-121 -57,-186 54,-89 187,-80 227,14 28,68 2,137 -65,172 -20,11 -32,20 -27,21 6,0 25,-9 43,-20 41,-25 65,-26 60,-2 -2,9 -27,29 -57,43 -50,25 -55,31 -71,80 -60,192 -165,274 -382,295 -48,5 -68,11 -68,20 0,8 8,14 19,14 33,0 81,22 92,42 14,27 -5,48 -45,48 -17,0 -49,11 -71,25 -45,28 -96,32 -119,10 z m 83,-347 v -83 l -25,54 c -40,88 -40,99 -7,104 15,2 29,5 31,6 1,0 2,-36 1,-81 z m 101,63 c 0,-4 -13,-38 -30,-76 l -29,-70 -1,81 v 81 l 30,-5 c 17,-2 30,-7 30,-11 z m -151,-101 31,-74 -65,64 -65,64 28,18 c 14,9 30,14 33,10 4,-4 21,-41 38,-82 z m 212,71 24,-20 -63,-63 -64,-63 17,40 c 9,22 24,59 33,83 9,23 19,42 23,42 4,0 17,-9 30,-19 z M 3225,439 c 33,-34 53,-59 45,-57 -8,3 -45,18 -82,34 l -67,27 17,29 c 9,15 19,28 22,28 3,0 32,-28 65,-61 z m 323,-8 c -18,-7 -55,-22 -83,-33 l -50,-19 60,61 60,61 23,-28 22,-28 z m -288,-74 c 8,-3 -24,-6 -72,-6 -80,-1 -88,1 -88,18 0,49 8,51 78,22 37,-15 74,-30 82,-34 z m 339,11 c 1,-16 -9,-18 -86,-18 l -88,1 80,34 c 85,36 92,34 94,-17 z m -404,-82 c -83,-34 -95,-33 -95,12 0,21 3,22 88,22 l 87,-1 z m 404,17 c -2,-52 -9,-54 -94,-18 l -80,34 88,1 c 77,0 87,-2 86,-17 z m -374,-73 c -33,-33 -62,-60 -65,-60 -3,0 -13,13 -22,28 l -17,29 72,30 c 40,17 76,32 82,32 5,1 -17,-26 -50,-59 z m 323,9 32,-14 -22,-28 -23,-28 -60,61 -60,61 50,-19 c 28,-11 65,-26 83,-33 z m -258,-11 c -10,-24 -25,-60 -34,-81 l -16,-38 -30,17 -30,18 62,63 c 34,35 63,63 65,63 1,0 -6,-19 -17,-42 z m 50,-54 V 78 l -32,7 c -18,4 -35,9 -37,11 -4,4 61,174 67,174 1,0 2,-43 2,-96 z m 151,-45 c -13,-10 -26,-19 -30,-19 -4,0 -14,19 -23,43 -9,23 -24,60 -33,82 l -17,40 64,-63 63,-63 z m -91,48 c 18,-43 31,-80 29,-81 -2,-2 -19,-7 -36,-11 l -33,-7 v 93 c 0,51 2,90 4,88 2,-2 18,-39 36,-82 z m 400,37 c 0,-8 -4,-12 -10,-9 -5,3 -10,10 -10,16 0,5 5,9 10,9 6,0 10,-7 10,-16 z m 60,7 c 0,-6 -4,-13 -10,-16 -5,-3 -10,1 -10,9 0,9 5,16 10,16 6,0 10,-4 10,-9 z m -90,-36 c 10,-13 9,-15 -8,-15 -15,0 -20,5 -16,15 4,8 7,15 9,15 1,0 8,-7 15,-15 z m 124,0 c 4,-11 -2,-15 -21,-15 -21,0 -24,2 -13,15 7,8 16,15 20,15 4,0 10,-7 14,-15 z m -114,-50 c -7,-8 -16,-15 -20,-15 -4,0 -10,7 -14,15 -4,11 2,15 21,15 21,0 24,-2 13,-15 z m 114,0 c -4,-8 -10,-15 -14,-15 -4,0 -13,7 -20,15 -11,13 -8,15 13,15 19,0 25,-4 21,-15 z m -86,-40 c -2,-10 -7,-12 -17,-5 -13,7 -13,11 -1,25 15,18 24,8 18,-20 z m 41,11 c 9,-10 8,-15 -4,-20 -10,-4 -15,1 -15,14 0,24 4,25 19,6 z"
       id="path6687"
       inkscape:connector-curvature="0" />
    <path
       d="m 1723,833 c -22,-4 -22,-5 7,-45 18,-25 32,-59 36,-89 4,-27 11,-46 15,-43 15,9 47,78 54,117 4,20 12,37 17,37 6,0 7,-7 4,-16 -3,-9 -9,-28 -13,-42 -3,-15 -19,-49 -35,-76 l -29,-48 38,7 c 20,3 59,18 86,31 27,14 51,23 54,21 6,-7 -117,-67 -138,-67 -31,0 -30,-17 2,-44 24,-20 41,-26 80,-26 34,0 48,-4 43,-11 -12,-19 -84,-2 -130,31 -38,27 -44,29 -44,13 0,-37 21,-93 46,-123 14,-16 21,-30 15,-30 -21,0 -62,77 -68,129 l -6,52 -20,-20 c -11,-11 -31,-50 -44,-88 -20,-58 -22,-62 -17,-25 3,24 18,64 32,89 l 25,46 -41,-5 c -23,-4 -62,-19 -86,-34 -43,-27 -44,-29 -31,-55 35,-67 127,-115 205,-107 l 37,3 49,-130 c 34,-89 55,-131 67,-133 33,-6 29,28 -17,146 -25,65 -46,123 -46,129 0,6 11,18 25,27 77,50 103,192 51,280 -42,71 -143,116 -223,99 z"
       id="path6689"
       inkscape:connector-curvature="0" />
    <path
       d="m 1615,776 c -25,-26 -48,-60 -54,-82 -14,-49 -14,-121 -1,-129 5,-3 25,5 42,19 18,13 58,31 87,38 l 55,14 -37,28 c -23,18 -54,30 -82,34 -25,2 -45,9 -45,13 0,24 90,-5 148,-47 22,-16 22,-16 22,25 0,46 -11,73 -43,109 -29,31 -41,28 -92,-22 z"
       id="path6691"
       inkscape:connector-curvature="0" />
  </g>
</svg>
